# This file uses centimeters as units for non-parametric coordinates.

mtllib arrow.mtl
v 0.139009 -0.707023 -0.328193
v 0.222761 -0.633069 -0.198174
v 0.139009 -0.782309 -0.188106
v 0.222761 0.633069 -0.198174
v 0.136204 0.701397 -0.328193
v 0.136204 0.779205 -0.183414
v 0.133399 -0.000000 0.994244
v 0.222761 0.000000 0.776798
v -0.224093 -0.633069 -0.198174
v -0.137537 -0.701397 -0.328193
v -0.137537 -0.779205 -0.183414
v -0.137537 0.779205 -0.183414
v -0.140342 0.707023 -0.328193
v -0.224093 0.633069 -0.198174
v -0.224093 -0.000000 0.776798
v -0.134731 -0.000000 0.994244
v 0.142120 -0.320906 -0.923121
v 0.091293 -0.393143 -0.917367
v 0.091293 -0.334791 -0.994244
v 0.142120 -0.030708 0.124133
v 0.090741 -0.102335 0.124133
v -0.092626 -0.334791 -0.994244
v -0.093179 -0.393376 -0.918203
v -0.143453 -0.320906 -0.923121
v -0.143453 -0.030708 0.124133
v -0.092073 -0.102335 0.124133
v -0.093179 0.335659 -0.994244
v -0.143453 0.320906 -0.923121
v -0.093179 0.393376 -0.918203
v -0.092073 0.102335 0.124133
v -0.143453 0.030708 0.124133
v 0.091293 0.334791 -0.994244
v 0.091846 0.393376 -0.918203
v 0.142120 0.320906 -0.923121
v 0.142120 0.030708 0.124133
v 0.090741 0.102335 0.124133
vt 0.399579 0.963351
vt 0.375000 0.976003
vt 0.375000 0.774800
vt 0.419970 0.005263
vt 0.666554 0.034118
vt 0.625000 0.690818
vt 0.592114 0.749999
vt 0.384920 0.699751
vt 0.384599 0.545092
vt 0.411754 0.205875
vt 0.375000 0.274800
vt 0.401115 0.276948
vt 0.375000 0.476003
vt 0.401115 0.457825
vt 0.654640 0.245911
vt 0.410563 0.051018
vt 0.696698 0.090935
vt 0.596947 0.310294
vt 0.402370 0.543396
vt 0.625000 0.513243
vt 0.402370 0.696545
vt 0.399579 0.782474
vt 0.583893 0.857258
vt 0.149800 0.048426
vt 0.350200 0.201574
vt 0.148997 0.203143
vt 0.351004 0.046857
vt 0.408488 0.750000
vt 0.404080 0.477837
vt 0.625000 0.044979
vt 0.712491 -0.000000
vt 0.787509 -0.000000
vt 0.875000 0.044979
vt 0.875000 0.205021
vt 0.787509 0.250000
vt 0.712491 0.250000
vt 0.625000 0.205021
vt 0.390899 0.965762
vt 0.375000 0.975936
vt 0.375000 0.774064
vt 0.390899 0.772263
vt 0.392185 0.044495
vt 0.398241 -0.000000
vt 0.350936 0.044495
vt 0.391998 0.205989
vt 0.350936 0.205505
vt 0.375000 0.274064
vt 0.390899 0.272263
vt 0.390899 0.465762
vt 0.375000 0.476198
vt 0.625000 0.337491
vt 0.382850 0.544011
vt 0.391998 0.544011
vt 0.391998 0.705989
vt 0.382937 0.705505
vt 0.625000 0.412509
vt 0.625000 0.544979
vt 0.625000 0.705021
vt 0.625000 0.837491
vt 0.625000 0.912509
vt 0.149064 0.044495
vt 0.148802 0.205989
vn -0.017916 -0.880711 -0.473314
vn -0.017916 -0.880712 -0.473314
vn -0.017916 -0.880711 -0.473314
vn -0.017916 -0.880712 -0.473314
vn 0.840248 0.001673 -0.542200
vn 0.833272 0.000182 -0.552864
vn 0.839839 0.001585 -0.542834
vn 0.832411 0.000000 -0.554159
vn 0.841877 -0.452623 0.293897
vn 0.806023 -0.492043 0.328969
vn 0.837469 -0.457783 0.298463
vn 0.804308 -0.493795 0.330539
vn 0.833555 0.463331 0.300849
vn 0.830071 0.467273 0.304363
vn 0.804577 0.494530 0.328780
vn 0.803166 0.495962 0.330070
vn -0.000000 0.880853 -0.473390
vn 0.006173 0.885656 -0.464300
vn 0.011984 0.890063 -0.455680
vn 0.018200 0.894652 -0.446394
vn -0.833555 -0.463331 0.300850
vn -0.830071 -0.467273 0.304363
vn -0.804577 -0.494530 0.328780
vn -0.803166 -0.495962 0.330070
vn -0.832411 0.000000 -0.554159
vn -0.839839 -0.001585 -0.542833
vn -0.833272 -0.000182 -0.552863
vn -0.840248 -0.001673 -0.542200
vn -0.833555 0.463331 0.300849
vn -0.804577 0.494530 0.328780
vn -0.830071 0.467273 0.304363
vn -0.803166 0.495962 0.330070
vn 0.000000 -0.833974 0.551804
vn 0.000000 -0.833974 0.551804
vn 0.000000 -0.833974 0.551804
vn 0.000000 -0.833974 0.551804
vn -1.000000 0.000000 0.000000
vn -1.000000 0.000000 0.000000
vn -1.000000 0.000000 0.000000
vn 0.000000 0.833974 0.551804
vn 0.000000 0.833974 0.551804
vn 0.000000 0.833974 0.551804
vn 0.000000 0.833974 0.551804
vn 1.000000 0.000000 0.000000
vn 1.000000 0.000000 0.000000
vn 1.000000 0.000000 0.000000
vn -0.000000 -0.000000 -1.000000
vn -0.000000 -0.000000 -1.000000
vn -0.000000 0.000000 -1.000000
vn -0.000000 0.000000 -1.000000
vn 0.834202 -0.485755 -0.261056
vn 0.834201 -0.485755 -0.261056
vn 0.834202 -0.485755 -0.261056
vn 0.814993 0.510429 -0.274316
vn 0.814993 0.510429 -0.274316
vn 0.814993 0.510429 -0.274316
vn -0.814993 -0.510429 -0.274316
vn -0.814993 -0.510429 -0.274316
vn -0.814993 -0.510429 -0.274316
vn -0.824541 0.512576 -0.239577
vn -0.824541 0.512576 -0.239577
vn -0.824541 0.512576 -0.239577
vn 0.000000 0.000000 1.000000
vn 0.000000 0.000000 1.000000
vn 0.000000 0.000000 1.000000
vn 0.000000 0.000000 1.000000
vn 0.000000 0.000000 1.000000
vn 0.000000 0.000000 1.000000
vn 0.000000 0.000000 1.000000
vn 0.000000 0.000000 1.000000
vn 0.813600 0.000000 -0.581425
vn 0.813600 0.000000 -0.581425
vn 0.813600 0.000000 -0.581425
vn 0.813600 0.000000 -0.581425
vn 0.813562 -0.559944 0.156780
vn 0.813043 -0.560662 0.156904
vn 0.802701 -0.574704 0.159328
vn 0.802170 -0.575413 0.159449
vn -0.000000 -0.796535 -0.604593
vn 0.001153 -0.795204 -0.606341
vn 0.002612 -0.793513 -0.608548
vn 0.003769 -0.792166 -0.610294
vn -0.813600 0.000000 -0.581425
vn -0.816312 -0.000624 -0.577612
vn -0.813885 -0.000065 -0.581027
vn -0.816526 -0.000673 -0.577309
vn -0.816510 -0.555837 0.156067
vn -0.802837 -0.574523 0.159296
vn -0.815862 -0.556744 0.156225
vn -0.802170 -0.575413 0.159449
vn 0.003748 0.796528 -0.604590
vn 0.002596 0.795191 -0.606354
vn 0.001129 0.793480 -0.608595
vn -0.000000 0.792158 -0.610316
vn -0.816510 0.555837 0.156067
vn -0.815862 0.556744 0.156225
vn -0.802837 0.574523 0.159296
vn -0.802170 0.575413 0.159449
vn 0.816510 0.555837 0.156067
vn 0.802837 0.574523 0.159296
vn 0.815862 0.556744 0.156225
vn 0.802170 0.575413 0.159449
vn 0.000000 -0.963159 0.268934
vn 0.000000 -0.963159 0.268934
vn 0.000000 -0.963159 0.268934
vn 0.000000 -0.963159 0.268934
vn -1.000000 0.000000 0.000000
vn -1.000000 0.000000 0.000000
vn -1.000000 0.000000 0.000000
vn -1.000000 0.000000 0.000000
vn 0.000000 0.963159 0.268934
vn 0.000000 0.963159 0.268934
vn 0.000000 0.963159 0.268934
vn 0.000000 0.963159 0.268934
vn 1.000000 0.000000 -0.000000
vn 1.000000 0.000000 -0.000000
vn 1.000000 0.000000 -0.000000
vn 1.000000 0.000000 -0.000000
vn -0.000000 0.000000 -1.000000
vn -0.000000 0.000000 -1.000000
vn -0.000000 0.000000 -1.000000
vn -0.000000 0.000000 -1.000000
vn 0.728560 -0.545612 -0.414135
vn 0.728560 -0.545612 -0.414135
vn 0.728560 -0.545612 -0.414135
vn -0.732581 -0.536621 -0.418764
vn -0.732581 -0.536621 -0.418764
vn -0.732581 -0.536621 -0.418764
vn -0.736586 0.538731 -0.408914
vn -0.736586 0.538731 -0.408913
vn -0.736586 0.538731 -0.408914
vn 0.732581 0.536621 -0.418764
vn 0.732581 0.536621 -0.418764
vn 0.732581 0.536621 -0.418764
usemtl initialShadingGroup
f 1/27/1 3/16/2 10/25/3
f 10/25/3 3/16/2 11/10/4
f 1/2/5 5/3/6 2/1/7
f 2/1/7 5/3/6 4/22/8
f 2/4/9 8/5/10 3/16/11
f 3/16/11 8/5/10 7/17/12
f 4/28/13 6/21/14 8/7/15
f 8/7/15 6/21/14 7/6/16
f 6/21/17 5/8/18 12/19/19
f 12/19/19 5/8/18 13/9/20
f 9/12/21 11/10/22 15/18/23
f 15/18/23 11/10/22 16/15/24
f 9/12/25 14/14/26 10/11/27
f 10/11/27 14/14/26 13/13/28
f 14/14/29 15/18/30 12/29/31
f 12/29/31 15/18/30 16/15/32
f 3/16/33 7/17/34 11/10/35
f 11/10/35 7/17/34 16/15/36
f 9/12/37 15/18/38 14/14/39
f 12/19/40 16/20/41 6/21/42
f 6/21/42 16/20/41 7/6/43
f 4/22/44 8/23/45 2/1/46
f 1/27/47 10/25/48 5/24/49
f 5/24/49 10/25/48 13/26/50
f 1/27/51 2/4/52 3/16/53
f 4/28/54 5/8/55 6/21/56
f 9/12/57 10/25/58 11/10/59
f 12/29/60 13/13/61 14/14/62
f 21/30/63 20/31/64 26/37/65
f 20/31/64 35/32/66 26/37/65
f 35/32/66 36/33/67 26/37/65
f 36/33/67 30/34/68 26/37/65
f 31/35/69 25/36/70 30/34/68
f 30/34/68 25/36/70 26/37/65
f 17/38/71 19/39/72 34/41/73
f 34/41/73 19/39/72 32/40/74
f 18/42/75 17/43/76 21/30/77
f 21/30/77 17/43/76 20/31/78
f 19/44/79 18/42/80 22/46/81
f 22/46/81 18/42/80 23/45/82
f 24/48/83 28/49/84 22/47/85
f 22/47/85 28/49/84 27/50/86
f 23/45/87 26/37/88 24/48/89
f 24/48/89 26/37/88 25/51/90
f 27/52/91 29/53/92 32/55/93
f 32/55/93 29/53/92 33/54/94
f 29/53/95 28/49/96 30/57/97
f 30/57/97 28/49/96 31/56/98
f 33/54/99 36/58/100 34/41/101
f 34/41/101 36/58/100 35/59/102
f 21/30/103 26/37/104 18/42/105
f 18/42/105 26/37/104 23/45/106
f 25/51/107 31/56/108 24/48/109
f 24/48/109 31/56/108 28/49/110
f 29/53/111 30/57/112 33/54/113
f 33/54/113 30/57/112 36/58/114
f 35/59/115 20/60/116 34/41/117
f 34/41/117 20/60/116 17/38/118
f 19/44/119 22/46/120 32/61/121
f 32/61/121 22/46/120 27/62/122
f 17/43/123 18/42/124 19/44/125
f 22/46/126 23/45/127 24/48/128
f 27/50/129 28/49/130 29/53/131
f 32/55/132 33/54/133 34/41/134
