# This file uses centimeters as units for non-parametric coordinates.

mtllib bahamut_circle_1.mtl
v -19.389783 19.588118 11.194698
v 19.389784 19.588118 11.194694
v -0.000004 19.588118 -22.389393
v 0.000001 19.588118 22.389393
v 19.389781 19.588118 -11.194700
v -19.389785 19.588118 -11.194694
v -0.000001 19.588118 0.000000
v -22.389393 19.588118 0.000002
v -11.194696 19.588118 19.389784
v 0.000000 19.588118 11.194696
v -9.694893 19.588118 -5.597347
v -9.694892 19.588118 5.597350
v 11.194699 19.588118 19.389783
v 22.389393 19.588118 -0.000003
v 9.694890 19.588118 -5.597350
v 9.694892 19.588118 5.597347
v 11.194692 19.588118 -19.389785
v -11.194699 19.588118 -19.389781
v -0.000002 19.588118 -11.194696
v -14.542339 19.588118 -8.396021
v -21.626494 19.588118 -5.794799
v -16.042143 19.588118 2.798675
v -9.694892 19.588118 0.000001
v -15.292242 19.588118 -2.798672
v -21.626493 19.588118 5.794803
v -15.831691 19.588118 15.831693
v -10.444794 19.588118 12.493566
v -15.667191 19.588118 9.045459
v -5.794801 19.588118 21.626494
v 0.000001 19.588118 16.792045
v -4.847446 19.588118 8.396023
v -5.222396 19.588118 14.642805
v -0.000000 19.588118 5.597348
v -4.847447 19.588118 -2.798673
v -4.847446 19.588118 2.798675
v 5.794803 19.588118 21.626494
v 10.444795 19.588118 12.493563
v 4.847446 19.588118 8.396022
v 5.222398 19.588118 14.642805
v 15.831693 19.588118 15.831690
v 21.626494 19.588118 5.794799
v 16.042143 19.588118 2.798672
v 15.667191 19.588118 9.045455
v 21.626493 19.588118 -5.794805
v 14.542335 19.588118 -8.396025
v 9.694891 19.588118 -0.000002
v 15.292239 19.588118 -2.798677
v 4.847445 19.588118 -2.798675
v 4.847445 19.588118 2.798673
v 15.831690 19.588118 -15.831695
v 5.597346 19.588118 -15.292240
v 4.847444 19.588118 -8.396024
v 10.069840 19.588118 -11.844133
v 5.794797 19.588118 -21.626494
v -5.794805 19.588118 -21.626493
v -5.597350 19.588118 -15.292239
v -0.000003 19.588118 -18.090914
v -15.831695 19.588118 -15.831690
v -4.847447 19.588118 -8.396022
v -10.069845 19.588118 -11.844130
v -0.000001 19.588118 -5.597348
vt 0.066987 0.250000
vt 0.933013 0.250000
vt 0.500000 1.000000
vt 0.500000 0.000000
vt 0.933013 0.750000
vt 0.066987 0.750000
vt 0.500000 0.500000
vt 0.000000 0.500000
vt 0.250000 0.066987
vt 0.500000 0.250000
vt 0.283494 0.625000
vt 0.283494 0.375000
vt 0.750000 0.066987
vt 1.000000 0.500000
vt 0.716506 0.625000
vt 0.716506 0.375000
vt 0.750000 0.933013
vt 0.250000 0.933013
vt 0.500000 0.750000
vt 0.175240 0.687500
vt 0.017037 0.629409
vt 0.141747 0.437500
vt 0.283494 0.500000
vt 0.158494 0.562500
vt 0.017037 0.370590
vt 0.146447 0.146447
vt 0.266747 0.220994
vt 0.150120 0.297997
vt 0.370591 0.017037
vt 0.500000 0.125000
vt 0.391747 0.312500
vt 0.383373 0.172997
vt 0.500000 0.375000
vt 0.391747 0.562500
vt 0.391747 0.437500
vt 0.629410 0.017037
vt 0.733253 0.220994
vt 0.608253 0.312500
vt 0.616627 0.172997
vt 0.853553 0.146447
vt 0.982963 0.370591
vt 0.858253 0.437500
vt 0.849880 0.297997
vt 0.982963 0.629410
vt 0.824759 0.687500
vt 0.716506 0.500000
vt 0.841506 0.562500
vt 0.608253 0.562500
vt 0.608253 0.437500
vt 0.853553 0.853553
vt 0.625000 0.841506
vt 0.608253 0.687500
vt 0.724880 0.764503
vt 0.629409 0.982963
vt 0.370590 0.982963
vt 0.375000 0.841506
vt 0.500000 0.904006
vt 0.146447 0.853553
vt 0.391747 0.687500
vt 0.275120 0.764503
vt 0.500000 0.625000
vn 0.000000 1.000000 0.000000
vn 0.000000 1.000000 0.000000
vn 0.000000 1.000000 0.000000
vn 0.000000 1.000000 0.000000
vn 0.000000 1.000000 0.000000
vn 0.000000 1.000000 0.000000
vn 0.000000 1.000000 0.000000
vn 0.000000 1.000000 0.000000
vn 0.000000 1.000000 0.000000
vn 0.000000 1.000000 0.000000
vn 0.000000 1.000000 0.000000
vn 0.000000 1.000000 0.000000
vn 0.000000 1.000000 0.000000
vn 0.000000 1.000000 0.000000
vn 0.000000 1.000000 0.000000
vn 0.000000 1.000000 0.000000
vn 0.000000 1.000000 0.000000
vn 0.000000 1.000000 0.000000
vn 0.000000 1.000000 0.000000
vn 0.000000 1.000000 0.000000
vn 0.000000 1.000000 0.000000
vn 0.000000 1.000000 0.000000
vn 0.000000 1.000000 0.000000
vn 0.000000 1.000000 0.000000
vn 0.000000 1.000000 0.000000
vn 0.000000 1.000000 0.000000
vn 0.000000 1.000000 0.000000
vn 0.000000 1.000000 0.000000
vn 0.000000 1.000000 0.000000
vn 0.000000 1.000000 0.000000
vn 0.000000 1.000000 0.000000
vn 0.000000 1.000000 0.000000
vn 0.000000 1.000000 0.000000
vn 0.000000 1.000000 0.000000
vn 0.000000 1.000000 0.000000
vn 0.000000 1.000000 0.000000
vn 0.000000 1.000000 0.000000
vn 0.000000 1.000000 0.000000
vn 0.000000 1.000000 0.000000
vn 0.000000 1.000000 0.000000
vn 0.000000 1.000000 0.000000
vn 0.000000 1.000000 0.000000
vn 0.000000 1.000000 0.000000
vn 0.000000 1.000000 0.000000
vn 0.000000 1.000000 0.000000
vn 0.000000 1.000000 0.000000
vn 0.000000 1.000000 0.000000
vn 0.000000 1.000000 0.000000
vn 0.000000 1.000000 0.000000
vn 0.000000 1.000000 0.000000
vn 0.000000 1.000000 0.000000
vn 0.000000 1.000000 0.000000
vn 0.000000 1.000000 0.000000
vn 0.000000 1.000000 0.000000
vn 0.000000 1.000000 0.000000
vn 0.000000 1.000000 0.000000
vn 0.000000 1.000000 0.000000
vn 0.000000 1.000000 0.000000
vn 0.000000 1.000000 0.000000
vn 0.000000 1.000000 0.000000
vn 0.000000 1.000000 0.000000
usemtl lambert8SG
f 23/23/1 11/11/2 20/20/3 24/24/4
f 20/20/3 6/6/5 21/21/6 24/24/4
f 21/21/6 8/8/7 22/22/8 24/24/4
f 22/22/8 12/12/9 23/23/1 24/24/4
f 22/22/8 8/8/7 25/25/10 28/28/11
f 25/25/10 1/1/12 26/26/13 28/28/11
f 26/26/13 9/9/14 27/27/15 28/28/11
f 27/27/15 12/12/9 22/22/8 28/28/11
f 27/27/15 9/9/14 29/29/16 32/32/17
f 29/29/16 4/4/18 30/30/19 32/32/17
f 30/30/19 10/10/20 31/31/21 32/32/17
f 31/31/21 12/12/9 27/27/15 32/32/17
f 31/31/21 10/10/20 33/33/22 35/35/23
f 33/33/22 7/7/24 34/34/25 35/35/23
f 34/34/25 11/11/2 23/23/1 35/35/23
f 23/23/1 12/12/9 31/31/21 35/35/23
f 38/38/26 10/10/20 30/30/19 39/39/27
f 30/30/19 4/4/18 36/36/28 39/39/27
f 36/36/28 13/13/29 37/37/30 39/39/27
f 37/37/30 16/16/31 38/38/26 39/39/27
f 37/37/30 13/13/29 40/40/32 43/43/33
f 40/40/32 2/2/34 41/41/35 43/43/33
f 41/41/35 14/14/36 42/42/37 43/43/33
f 42/42/37 16/16/31 37/37/30 43/43/33
f 42/42/37 14/14/36 44/44/38 47/47/39
f 44/44/38 5/5/40 45/45/41 47/47/39
f 45/45/41 15/15/42 46/46/43 47/47/39
f 46/46/43 16/16/31 42/42/37 47/47/39
f 46/46/43 15/15/42 48/48/44 49/49/45
f 48/48/44 7/7/24 33/33/22 49/49/45
f 33/33/22 10/10/20 38/38/26 49/49/45
f 38/38/26 16/16/31 46/46/43 49/49/45
f 52/52/46 15/15/42 45/45/41 53/53/47
f 45/45/41 5/5/40 50/50/48 53/53/47
f 50/50/48 17/17/49 51/51/50 53/53/47
f 51/51/50 19/19/51 52/52/46 53/53/47
f 51/51/50 17/17/49 54/54/52 57/57/53
f 54/54/52 3/3/54 55/55/55 57/57/53
f 55/55/55 18/18/56 56/56/57 57/57/53
f 56/56/57 19/19/51 51/51/50 57/57/53
f 56/56/57 18/18/56 58/58/58 60/60/59
f 58/58/58 6/6/5 20/20/3 60/60/59
f 20/20/3 11/11/2 59/59/60 60/60/59
f 59/59/60 19/19/51 56/56/57 60/60/59
f 59/59/60 11/11/2 34/34/25 61/61/61
f 34/34/25 7/7/24 48/48/44 61/61/61
f 48/48/44 15/15/42 52/52/46 61/61/61
f 52/52/46 19/19/51 59/59/60 61/61/61
v -19.389783 19.334084 -11.194698
v 19.389784 19.334084 -11.194694
v -0.000004 19.334084 22.389393
v 0.000001 19.334084 -22.389393
v 19.389781 19.334084 11.194700
v -19.389785 19.334084 11.194694
v -0.000001 19.334084 0.000000
v -22.389393 19.334084 -0.000002
v -11.194696 19.334084 -19.389784
v 0.000000 19.334084 -11.194696
v -9.694893 19.334084 5.597347
v -9.694892 19.334084 -5.597350
v 11.194699 19.334084 -19.389783
v 22.389393 19.334084 0.000003
v 9.694890 19.334084 5.597350
v 9.694892 19.334084 -5.597347
v 11.194692 19.334084 19.389785
v -11.194699 19.334084 19.389781
v -0.000002 19.334084 11.194696
v -14.542339 19.334084 8.396021
v -21.626494 19.334084 5.794799
v -16.042143 19.334084 -2.798675
v -9.694892 19.334084 -0.000001
v -15.292242 19.334084 2.798672
v -21.626493 19.334084 -5.794803
v -15.831691 19.334084 -15.831693
v -10.444794 19.334084 -12.493566
v -15.667191 19.334084 -9.045459
v -5.794801 19.334084 -21.626494
v 0.000001 19.334084 -16.792045
v -4.847446 19.334084 -8.396023
v -5.222396 19.334084 -14.642805
v -0.000000 19.334084 -5.597348
v -4.847447 19.334084 2.798673
v -4.847446 19.334084 -2.798675
v 5.794803 19.334084 -21.626494
v 10.444795 19.334084 -12.493563
v 4.847446 19.334084 -8.396022
v 5.222398 19.334084 -14.642805
v 15.831693 19.334084 -15.831690
v 21.626494 19.334084 -5.794799
v 16.042143 19.334084 -2.798672
v 15.667191 19.334084 -9.045455
v 21.626493 19.334084 5.794805
v 14.542335 19.334084 8.396025
v 9.694891 19.334084 0.000002
v 15.292239 19.334084 2.798677
v 4.847445 19.334084 2.798675
v 4.847445 19.334084 -2.798673
v 15.831690 19.334084 15.831695
v 5.597346 19.334084 15.292240
v 4.847444 19.334084 8.396024
v 10.069840 19.334084 11.844133
v 5.794797 19.334084 21.626494
v -5.794805 19.334084 21.626493
v -5.597350 19.334084 15.292239
v -0.000003 19.334084 18.090914
v -15.831695 19.334084 15.831690
v -4.847447 19.334084 8.396022
v -10.069845 19.334084 11.844130
v -0.000001 19.334084 5.597348
vt 0.066987 0.250000
vt 0.933013 0.250000
vt 0.500000 1.000000
vt 0.500000 0.000000
vt 0.933013 0.750000
vt 0.066987 0.750000
vt 0.500000 0.500000
vt 0.000000 0.500000
vt 0.250000 0.066987
vt 0.500000 0.250000
vt 0.283494 0.625000
vt 0.283494 0.375000
vt 0.750000 0.066987
vt 1.000000 0.500000
vt 0.716506 0.625000
vt 0.716506 0.375000
vt 0.750000 0.933013
vt 0.250000 0.933013
vt 0.500000 0.750000
vt 0.175240 0.687500
vt 0.017037 0.629409
vt 0.141747 0.437500
vt 0.283494 0.500000
vt 0.158494 0.562500
vt 0.017037 0.370590
vt 0.146447 0.146447
vt 0.266747 0.220994
vt 0.150120 0.297997
vt 0.370591 0.017037
vt 0.500000 0.125000
vt 0.391747 0.312500
vt 0.383373 0.172997
vt 0.500000 0.375000
vt 0.391747 0.562500
vt 0.391747 0.437500
vt 0.629410 0.017037
vt 0.733253 0.220994
vt 0.608253 0.312500
vt 0.616627 0.172997
vt 0.853553 0.146447
vt 0.982963 0.370591
vt 0.858253 0.437500
vt 0.849880 0.297997
vt 0.982963 0.629410
vt 0.824759 0.687500
vt 0.716506 0.500000
vt 0.841506 0.562500
vt 0.608253 0.562500
vt 0.608253 0.437500
vt 0.853553 0.853553
vt 0.625000 0.841506
vt 0.608253 0.687500
vt 0.724880 0.764503
vt 0.629409 0.982963
vt 0.370590 0.982963
vt 0.375000 0.841506
vt 0.500000 0.904006
vt 0.146447 0.853553
vt 0.391747 0.687500
vt 0.275120 0.764503
vt 0.500000 0.625000
vn 0.000000 -1.000000 0.000000
vn 0.000000 -1.000000 0.000000
vn 0.000000 -1.000000 0.000000
vn 0.000000 -1.000000 0.000000
vn 0.000000 -1.000000 0.000000
vn 0.000000 -1.000000 0.000000
vn 0.000000 -1.000000 0.000000
vn 0.000000 -1.000000 0.000000
vn 0.000000 -1.000000 0.000000
vn 0.000000 -1.000000 0.000000
vn 0.000000 -1.000000 0.000000
vn 0.000000 -1.000000 0.000000
vn 0.000000 -1.000000 0.000000
vn 0.000000 -1.000000 0.000000
vn 0.000000 -1.000000 0.000000
vn 0.000000 -1.000000 0.000000
vn 0.000000 -1.000000 0.000000
vn 0.000000 -1.000000 0.000000
vn 0.000000 -1.000000 0.000000
vn 0.000000 -1.000000 0.000000
vn 0.000000 -1.000000 0.000000
vn 0.000000 -1.000000 0.000000
vn 0.000000 -1.000000 0.000000
vn 0.000000 -1.000000 0.000000
vn 0.000000 -1.000000 0.000000
vn 0.000000 -1.000000 0.000000
vn 0.000000 -1.000000 0.000000
vn 0.000000 -1.000000 0.000000
vn 0.000000 -1.000000 0.000000
vn 0.000000 -1.000000 0.000000
vn 0.000000 -1.000000 0.000000
vn 0.000000 -1.000000 0.000000
vn 0.000000 -1.000000 0.000000
vn 0.000000 -1.000000 0.000000
vn 0.000000 -1.000000 0.000000
vn 0.000000 -1.000000 0.000000
vn 0.000000 -1.000000 0.000000
vn 0.000000 -1.000000 0.000000
vn 0.000000 -1.000000 0.000000
vn 0.000000 -1.000000 0.000000
vn 0.000000 -1.000000 0.000000
vn 0.000000 -1.000000 0.000000
vn 0.000000 -1.000000 0.000000
vn 0.000000 -1.000000 0.000000
vn 0.000000 -1.000000 0.000000
vn 0.000000 -1.000000 0.000000
vn 0.000000 -1.000000 0.000000
vn 0.000000 -1.000000 0.000000
vn 0.000000 -1.000000 0.000000
vn 0.000000 -1.000000 0.000000
vn 0.000000 -1.000000 0.000000
vn 0.000000 -1.000000 0.000000
vn 0.000000 -1.000000 0.000000
vn 0.000000 -1.000000 0.000000
vn 0.000000 -1.000000 0.000000
vn 0.000000 -1.000000 0.000000
vn 0.000000 -1.000000 0.000000
vn 0.000000 -1.000000 0.000000
vn 0.000000 -1.000000 0.000000
vn 0.000000 -1.000000 0.000000
vn 0.000000 -1.000000 0.000000
f 84/84/62 72/72/63 81/81/64 85/85/65
f 81/81/64 67/67/66 82/82/67 85/85/65
f 82/82/67 69/69/68 83/83/69 85/85/65
f 83/83/69 73/73/70 84/84/62 85/85/65
f 83/83/69 69/69/68 86/86/71 89/89/72
f 86/86/71 62/62/73 87/87/74 89/89/72
f 87/87/74 70/70/75 88/88/76 89/89/72
f 88/88/76 73/73/70 83/83/69 89/89/72
f 88/88/76 70/70/75 90/90/77 93/93/78
f 90/90/77 65/65/79 91/91/80 93/93/78
f 91/91/80 71/71/81 92/92/82 93/93/78
f 92/92/82 73/73/70 88/88/76 93/93/78
f 92/92/82 71/71/81 94/94/83 96/96/84
f 94/94/83 68/68/85 95/95/86 96/96/84
f 95/95/86 72/72/63 84/84/62 96/96/84
f 84/84/62 73/73/70 92/92/82 96/96/84
f 99/99/87 71/71/81 91/91/80 100/100/88
f 91/91/80 65/65/79 97/97/89 100/100/88
f 97/97/89 74/74/90 98/98/91 100/100/88
f 98/98/91 77/77/92 99/99/87 100/100/88
f 98/98/91 74/74/90 101/101/93 104/104/94
f 101/101/93 63/63/95 102/102/96 104/104/94
f 102/102/96 75/75/97 103/103/98 104/104/94
f 103/103/98 77/77/92 98/98/91 104/104/94
f 103/103/98 75/75/97 105/105/99 108/108/100
f 105/105/99 66/66/101 106/106/102 108/108/100
f 106/106/102 76/76/103 107/107/104 108/108/100
f 107/107/104 77/77/92 103/103/98 108/108/100
f 107/107/104 76/76/103 109/109/105 110/110/106
f 109/109/105 68/68/85 94/94/83 110/110/106
f 94/94/83 71/71/81 99/99/87 110/110/106
f 99/99/87 77/77/92 107/107/104 110/110/106
f 113/113/107 76/76/103 106/106/102 114/114/108
f 106/106/102 66/66/101 111/111/109 114/114/108
f 111/111/109 78/78/110 112/112/111 114/114/108
f 112/112/111 80/80/112 113/113/107 114/114/108
f 112/112/111 78/78/110 115/115/113 118/118/114
f 115/115/113 64/64/115 116/116/116 118/118/114
f 116/116/116 79/79/117 117/117/118 118/118/114
f 117/117/118 80/80/112 112/112/111 118/118/114
f 117/117/118 79/79/117 119/119/119 121/121/120
f 119/119/119 67/67/66 81/81/64 121/121/120
f 81/81/64 72/72/63 120/120/121 121/121/120
f 120/120/121 80/80/112 117/117/118 121/121/120
f 120/120/121 72/72/63 95/95/86 122/122/122
f 95/95/86 68/68/85 109/109/105 122/122/122
f 109/109/105 76/76/103 113/113/107 122/122/122
f 113/113/107 80/80/112 120/120/121 122/122/122
