# This file uses centimeters as units for non-parametric coordinates.

mtllib player_body.mtl
v 0.359277 -0.423656 -0.141520
v 0.204858 -0.423656 -0.245119
v -0.006081 -0.423656 -0.283039
v -0.217021 -0.423656 -0.245119
v -0.371440 -0.423656 -0.141520
v -0.427961 -0.423656 0.000000
v -0.371440 -0.423656 0.141520
v -0.217021 -0.423656 0.245119
v -0.006081 -0.423656 0.283039
v 0.204858 -0.423656 0.245119
v 0.359277 -0.423656 0.141520
v 0.415798 -0.423656 0.000000
v 0.458223 -0.349095 -0.179846
v 0.261985 -0.349095 -0.311502
v -0.006081 -0.349095 -0.359692
v -0.274148 -0.349095 -0.311502
v -0.470386 -0.349095 -0.179846
v -0.542214 -0.349095 0.000000
v -0.470386 -0.349095 0.179846
v -0.274148 -0.349095 0.311502
v -0.006081 -0.349095 0.359692
v 0.261985 -0.349095 0.311502
v 0.458223 -0.349095 0.179846
v 0.530051 -0.349095 0.000000
v -0.006081 -0.423656 0.000000
v -0.006081 0.039844 0.000000
v 0.407689 0.618768 -0.160272
v 0.232809 0.618768 -0.277599
v -0.006081 0.618768 0.000000
v 0.232809 0.618769 -0.277599
v -0.006081 0.618769 -0.320543
v -0.006081 0.618769 0.000000
v -0.006081 0.618769 -0.320543
v -0.244972 0.618769 -0.277599
v -0.006081 0.618769 0.000000
v -0.244972 0.618768 -0.277599
v -0.419852 0.618768 -0.160272
v -0.006081 0.618768 0.000000
v -0.419852 0.618769 -0.160272
v -0.483862 0.618769 0.000000
v -0.006081 0.618769 0.000000
v -0.483862 0.618769 0.000000
v -0.419852 0.618769 0.160272
v -0.006081 0.618769 0.000000
v -0.419852 0.618768 0.160272
v -0.244972 0.618768 0.277599
v -0.006081 0.618768 0.000000
v -0.244972 0.618769 0.277599
v -0.006081 0.618769 0.320543
v -0.006081 0.618769 0.000000
v -0.006081 0.618769 0.320543
v 0.232809 0.618769 0.277599
v -0.006081 0.618769 0.000000
v 0.232809 0.618768 0.277599
v 0.407689 0.618768 0.160272
v -0.006081 0.618768 0.000000
v 0.407689 0.618769 0.160272
v 0.471699 0.618769 0.000000
v -0.006081 0.618769 0.000000
v 0.471699 0.618769 0.000000
v 0.407689 0.618769 -0.160272
v -0.006081 0.618769 0.000000
vt 0.397246 0.166500
vt 0.340055 0.109308
vt 0.261930 0.088375
vt 0.183805 0.109308
vt 0.126613 0.166500
vt 0.105680 0.244625
vt 0.126613 0.322750
vt 0.183805 0.379941
vt 0.261930 0.400875
vt 0.340055 0.379941
vt 0.397246 0.322750
vt 0.418180 0.244625
vt 0.113483 0.078037
vt 0.134317 0.078037
vt 0.155150 0.078037
vt 0.175983 0.078037
vt 0.196817 0.078037
vt 0.217650 0.078037
vt 0.238484 0.078037
vt 0.259317 0.078037
vt 0.280150 0.078037
vt 0.300983 0.078037
vt 0.321817 0.078037
vt 0.342650 0.078037
vt 0.363483 0.078037
vt 0.113483 0.453977
vt 0.134317 0.453977
vt 0.155150 0.453977
vt 0.175983 0.453977
vt 0.196817 0.453977
vt 0.217650 0.453977
vt 0.238484 0.453977
vt 0.259317 0.453977
vt 0.280150 0.453977
vt 0.300983 0.453977
vt 0.321817 0.453977
vt 0.342650 0.453977
vt 0.363483 0.453977
vt 0.377407 0.168646
vt 0.320216 0.111454
vt 0.242091 0.090521
vt 0.163966 0.111454
vt 0.106774 0.168646
vt 0.085841 0.246771
vt 0.106774 0.324896
vt 0.163966 0.382087
vt 0.242091 0.403021
vt 0.320216 0.382087
vt 0.377407 0.324896
vt 0.398341 0.246771
vt 0.261930 0.238375
vt 0.242091 0.240521
vt 0.377407 0.324896
vt 0.320216 0.382087
vt 0.242091 0.240521
vt 0.320216 0.382087
vt 0.242091 0.403021
vt 0.242091 0.240521
vt 0.242091 0.403021
vt 0.163966 0.382087
vt 0.242091 0.240521
vt 0.163966 0.382087
vt 0.106774 0.324896
vt 0.242091 0.240521
vt 0.106774 0.324896
vt 0.085841 0.246771
vt 0.242091 0.240521
vt 0.085841 0.246771
vt 0.106774 0.168646
vt 0.242091 0.240521
vt 0.106774 0.168646
vt 0.163966 0.111454
vt 0.242091 0.240521
vt 0.163966 0.111454
vt 0.242091 0.090521
vt 0.242091 0.240521
vt 0.242091 0.090521
vt 0.320216 0.111454
vt 0.242091 0.240521
vt 0.320216 0.111454
vt 0.377407 0.168646
vt 0.242091 0.240521
vt 0.377407 0.168646
vt 0.398341 0.246771
vt 0.242091 0.240521
vt 0.398341 0.246771
vt 0.377407 0.324896
vt 0.242091 0.240521
vn 0.362661 -0.759126 -0.540559
vn 0.362661 -0.759127 -0.540559
vn 0.556818 -0.033554 -0.829957
vn 0.556726 -0.038122 -0.829821
vn 0.124372 -0.711251 -0.691848
vn 0.124372 -0.711251 -0.691848
vn 0.176856 -0.029117 -0.983806
vn 0.176835 -0.033082 -0.983684
vn -0.124372 -0.711251 -0.691848
vn -0.124372 -0.711251 -0.691848
vn -0.176856 -0.029117 -0.983806
vn -0.176834 -0.033082 -0.983685
vn -0.362661 -0.759127 -0.540559
vn -0.362661 -0.759127 -0.540559
vn -0.556818 -0.033554 -0.829957
vn -0.556726 -0.038122 -0.829821
vn -0.533945 -0.818185 -0.213250
vn -0.533946 -0.818185 -0.213250
vn -0.927895 -0.040933 -0.370588
vn -0.927669 -0.046502 -0.370498
vn -0.533946 -0.818185 0.213250
vn -0.533945 -0.818185 0.213250
vn -0.927895 -0.040933 0.370588
vn -0.927669 -0.046502 0.370498
vn -0.362661 -0.759127 0.540559
vn -0.362661 -0.759127 0.540559
vn -0.556818 -0.033554 0.829957
vn -0.556726 -0.038123 0.829821
vn -0.124372 -0.711252 0.691848
vn -0.124372 -0.711251 0.691848
vn -0.176856 -0.029117 0.983806
vn -0.176834 -0.033082 0.983684
vn 0.124372 -0.711251 0.691848
vn 0.124372 -0.711251 0.691848
vn 0.176856 -0.029117 0.983806
vn 0.176834 -0.033082 0.983684
vn 0.362661 -0.759127 0.540559
vn 0.362661 -0.759127 0.540559
vn 0.556818 -0.033554 0.829957
vn 0.556726 -0.038122 0.829821
vn 0.533945 -0.818185 0.213251
vn 0.533945 -0.818185 0.213251
vn 0.927895 -0.040933 0.370589
vn 0.927668 -0.046502 0.370499
vn 0.533945 -0.818185 -0.213251
vn 0.533945 -0.818185 -0.213251
vn 0.927895 -0.040933 -0.370589
vn 0.927668 -0.046502 -0.370499
vn 0.000000 -1.000000 0.000000
vn 0.000000 -1.000000 0.000000
vn 0.000000 -1.000000 -0.000000
vn 0.000000 -1.000000 0.000000
vn 0.000000 -1.000000 0.000000
vn 0.000000 -1.000000 0.000000
vn 0.000000 -1.000000 0.000000
vn 0.000000 -1.000000 -0.000000
vn 0.000000 -1.000000 -0.000000
vn 0.000000 -1.000000 0.000000
vn 0.000000 -1.000000 -0.000000
vn 0.000000 -1.000000 -0.000000
vn 0.000000 -1.000000 0.000000
vn 0.000000 1.000000 0.000000
vn 0.000000 1.000000 0.000000
vn 0.000000 1.000000 0.000000
vn 0.000000 1.000000 0.000000
vn 0.000000 1.000000 0.000000
vn 0.000000 1.000000 0.000000
vn 0.000000 1.000000 0.000000
vn 0.000000 1.000000 0.000000
vn 0.000000 1.000000 0.000000
vn 0.000000 1.000000 0.000001
vn 0.000000 1.000000 0.000001
vn 0.000000 1.000000 0.000001
vn 0.000000 1.000000 0.000001
vn 0.000000 1.000000 0.000001
vn 0.000000 1.000000 0.000001
vn 0.000000 1.000000 -0.000001
vn 0.000000 1.000000 -0.000001
vn 0.000000 1.000000 -0.000001
vn 0.000000 1.000000 0.000000
vn 0.000000 1.000000 0.000000
vn 0.000000 1.000000 0.000000
vn 0.000000 1.000000 0.000000
vn 0.000000 1.000000 0.000000
vn 0.000000 1.000000 0.000000
vn 0.000000 1.000000 0.000000
vn 0.000000 1.000000 0.000000
vn 0.000000 1.000000 0.000000
vn 0.000000 1.000000 -0.000001
vn 0.000000 1.000000 -0.000001
vn 0.000000 1.000000 -0.000001
vn 0.000000 1.000000 0.000000
vn 0.000000 1.000000 0.000000
vn 0.000000 1.000000 0.000000
vn 0.000000 1.000000 0.000000
vn 0.000000 1.000000 0.000000
vn 0.000000 1.000000 0.000000
vn 0.556546 0.045835 -0.829552
vn 0.556546 0.045835 -0.829552
vn -0.757976 0.000000 -0.652283
vn -0.757976 0.000000 -0.652283
vn -0.757976 0.000000 -0.652283
vn -0.757976 0.000000 -0.652283
vn 0.361195 0.000000 0.932490
vn 0.361195 0.000000 0.932490
vn 0.361195 0.000000 0.932490
vn 0.361195 0.000000 0.932490
vn 0.176791 0.039779 -0.983444
vn 0.176791 0.039779 -0.983444
vn -1.000000 0.000000 0.000000
vn -1.000000 0.000000 0.000000
vn -1.000000 0.000000 0.000000
vn -1.000000 0.000000 0.000000
vn 0.757976 -0.000000 0.652283
vn 0.757976 -0.000000 0.652283
vn 0.757976 -0.000000 0.652283
vn 0.757976 0.000000 0.652283
vn -0.176791 0.039779 -0.983444
vn -0.176791 0.039779 -0.983444
vn -0.757975 -0.000000 0.652283
vn -0.757975 -0.000000 0.652283
vn -0.757975 -0.000000 0.652283
vn -0.757975 0.000000 0.652283
vn 1.000000 0.000000 0.000000
vn 1.000000 0.000000 0.000000
vn 1.000000 0.000000 0.000000
vn 1.000000 0.000000 0.000000
vn -0.556546 0.045835 -0.829552
vn -0.556546 0.045835 -0.829552
vn -0.361195 -0.000000 0.932490
vn -0.361195 -0.000000 0.932490
vn -0.361195 -0.000000 0.932490
vn -0.361195 0.000000 0.932490
vn 0.757975 0.000000 -0.652283
vn 0.757975 0.000000 -0.652283
vn 0.757975 0.000000 -0.652283
vn 0.757975 0.000000 -0.652283
vn -0.927221 0.055902 -0.370319
vn -0.927221 0.055902 -0.370319
vn 0.000000 0.000000 1.000000
vn 0.000000 0.000000 1.000000
vn 0.000000 0.000000 1.000000
vn 0.000000 0.000000 1.000000
vn 0.361195 0.000000 -0.932490
vn 0.361195 0.000000 -0.932490
vn 0.361195 0.000000 -0.932490
vn 0.361195 0.000000 -0.932490
vn -0.927221 0.055902 0.370319
vn -0.927221 0.055902 0.370319
vn 0.361195 0.000000 0.932490
vn 0.361195 0.000000 0.932490
vn 0.361195 0.000000 0.932490
vn 0.361195 0.000000 0.932490
vn 0.000000 0.000000 -1.000000
vn 0.000000 0.000000 -1.000000
vn 0.000000 0.000000 -1.000000
vn 0.000000 0.000000 -1.000000
vn -0.556546 0.045836 0.829552
vn -0.556546 0.045836 0.829552
vn 0.757975 0.000000 0.652283
vn 0.757975 0.000000 0.652283
vn 0.757975 0.000000 0.652283
vn 0.757975 0.000000 0.652283
vn -0.361195 0.000000 -0.932490
vn -0.361195 -0.000000 -0.932490
vn -0.361195 -0.000000 -0.932490
vn -0.361195 -0.000000 -0.932490
vn -0.176791 0.039779 0.983444
vn -0.176791 0.039779 0.983444
vn 1.000000 0.000000 0.000000
vn 1.000000 0.000000 0.000000
vn 1.000000 0.000000 0.000000
vn 1.000000 0.000000 0.000000
vn -0.757975 0.000000 -0.652283
vn -0.757975 0.000000 -0.652283
vn -0.757975 0.000000 -0.652283
vn -0.757975 0.000000 -0.652283
vn 0.176791 0.039779 0.983444
vn 0.176791 0.039779 0.983444
vn 0.757976 -0.000000 -0.652283
vn 0.757976 -0.000000 -0.652283
vn 0.757976 -0.000000 -0.652283
vn 0.757976 0.000000 -0.652283
vn -1.000000 0.000000 0.000000
vn -1.000000 0.000000 0.000000
vn -1.000000 0.000000 0.000000
vn -1.000000 0.000000 0.000000
vn 0.556546 0.045835 0.829552
vn 0.556546 0.045835 0.829552
vn 0.361195 -0.000000 -0.932490
vn 0.361195 -0.000000 -0.932490
vn 0.361195 -0.000000 -0.932490
vn 0.361195 0.000000 -0.932490
vn -0.757976 0.000000 0.652283
vn -0.757976 0.000000 0.652283
vn -0.757976 0.000000 0.652283
vn -0.757976 0.000000 0.652283
vn 0.927221 0.055902 0.370320
vn 0.927221 0.055902 0.370320
vn 0.000000 0.000000 -1.000000
vn 0.000000 0.000000 -1.000000
vn 0.000000 0.000000 -1.000000
vn 0.000000 0.000000 -1.000000
vn -0.361195 0.000000 0.932490
vn -0.361195 0.000000 0.932490
vn -0.361195 0.000000 0.932490
vn -0.361195 0.000000 0.932490
vn 0.927221 0.055902 -0.370320
vn 0.927221 0.055902 -0.370320
vn -0.361195 0.000000 -0.932490
vn -0.361195 0.000000 -0.932490
vn -0.361195 0.000000 -0.932490
vn -0.361195 0.000000 -0.932490
vn 0.000000 0.000000 1.000000
vn 0.000000 0.000000 1.000000
vn 0.000000 0.000000 1.000000
vn 0.000000 0.000000 1.000000
usemtl initialShadingGroup
f 1/13/1 2/14/2 13/26/3
f 13/26/3 2/14/2 14/27/4
f 2/14/5 3/15/6 14/27/7
f 14/27/7 3/15/6 15/28/8
f 3/15/9 4/16/10 15/28/11
f 15/28/11 4/16/10 16/29/12
f 4/16/13 5/17/14 16/29/15
f 16/29/15 5/17/14 17/30/16
f 5/17/17 6/18/18 17/30/19
f 17/30/19 6/18/18 18/31/20
f 6/18/21 7/19/22 18/31/23
f 18/31/23 7/19/22 19/32/24
f 7/19/25 8/20/26 19/32/27
f 19/32/27 8/20/26 20/33/28
f 8/20/29 9/21/30 20/33/31
f 20/33/31 9/21/30 21/34/32
f 9/21/33 10/22/34 21/34/35
f 21/34/35 10/22/34 22/35/36
f 10/22/37 11/23/38 22/35/39
f 22/35/39 11/23/38 23/36/40
f 11/23/41 12/24/42 23/36/43
f 23/36/43 12/24/42 24/37/44
f 12/24/45 1/25/46 24/37/47
f 24/37/47 1/25/46 13/38/48
f 2/2/49 1/1/50 25/51/51
f 3/3/52 2/2/49 25/51/51
f 4/4/53 3/3/52 25/51/51
f 5/5/54 4/4/53 25/51/51
f 6/6/55 5/5/54 25/51/51
f 7/7/56 6/6/55 25/51/51
f 8/8/57 7/7/56 25/51/51
f 9/9/58 8/8/57 25/51/51
f 10/10/59 9/9/58 25/51/51
f 11/11/60 10/10/59 25/51/51
f 12/12/61 11/11/60 25/51/51
f 1/1/50 12/12/61 25/51/51
f 27/87/62 28/48/63 29/88/64
f 30/48/65 31/47/66 32/88/67
f 33/47/68 34/46/69 35/88/70
f 36/46/71 37/45/72 38/88/73
f 39/45/74 40/44/75 41/88/76
f 42/44/77 43/43/78 44/88/79
f 45/43/80 46/42/81 47/88/82
f 48/42/83 49/41/84 50/88/85
f 51/41/86 52/40/87 53/88/88
f 54/40/89 55/39/90 56/88/91
f 57/39/92 58/86/93 59/88/94
f 60/86/95 61/87/96 62/88/97
f 13/49/3 14/48/4 27/53/98
f 27/53/98 14/48/4 28/54/99
f 14/48/100 26/52/101 28/54/102
f 28/54/102 26/52/101 29/55/103
f 13/49/104 27/53/105 26/52/106
f 26/52/106 27/53/105 29/55/107
f 14/48/7 15/47/8 30/56/108
f 30/56/108 15/47/8 31/57/109
f 15/47/110 26/52/111 31/57/112
f 31/57/112 26/52/111 32/58/113
f 14/48/114 30/56/115 26/52/116
f 26/52/116 30/56/115 32/58/117
f 15/47/11 16/46/12 33/59/118
f 33/59/118 16/46/12 34/60/119
f 16/46/120 26/52/121 34/60/122
f 34/60/122 26/52/121 35/61/123
f 15/47/124 33/59/125 26/52/126
f 26/52/126 33/59/125 35/61/127
f 16/46/15 17/45/16 36/62/128
f 36/62/128 17/45/16 37/63/129
f 17/45/130 26/52/131 37/63/132
f 37/63/132 26/52/131 38/64/133
f 16/46/134 36/62/135 26/52/136
f 26/52/136 36/62/135 38/64/137
f 17/45/19 18/44/20 39/65/138
f 39/65/138 18/44/20 40/66/139
f 18/44/140 26/52/141 40/66/142
f 40/66/142 26/52/141 41/67/143
f 17/45/144 39/65/145 26/52/146
f 26/52/146 39/65/145 41/67/147
f 18/44/23 19/43/24 42/68/148
f 42/68/148 19/43/24 43/69/149
f 19/43/150 26/52/151 43/69/152
f 43/69/152 26/52/151 44/70/153
f 18/44/154 42/68/155 26/52/156
f 26/52/156 42/68/155 44/70/157
f 19/43/27 20/42/28 45/71/158
f 45/71/158 20/42/28 46/72/159
f 20/42/160 26/52/161 46/72/162
f 46/72/162 26/52/161 47/73/163
f 19/43/164 45/71/165 26/52/166
f 26/52/166 45/71/165 47/73/167
f 20/42/31 21/41/32 48/74/168
f 48/74/168 21/41/32 49/75/169
f 21/41/170 26/52/171 49/75/172
f 49/75/172 26/52/171 50/76/173
f 20/42/174 48/74/175 26/52/176
f 26/52/176 48/74/175 50/76/177
f 21/41/35 22/40/36 51/77/178
f 51/77/178 22/40/36 52/78/179
f 22/40/180 26/52/181 52/78/182
f 52/78/182 26/52/181 53/79/183
f 21/41/184 51/77/185 26/52/186
f 26/52/186 51/77/185 53/79/187
f 22/40/39 23/39/40 54/80/188
f 54/80/188 23/39/40 55/81/189
f 23/39/190 26/52/191 55/81/192
f 55/81/192 26/52/191 56/82/193
f 22/40/194 54/80/195 26/52/196
f 26/52/196 54/80/195 56/82/197
f 23/39/43 24/50/44 57/83/198
f 57/83/198 24/50/44 58/84/199
f 24/50/200 26/52/201 58/84/202
f 58/84/202 26/52/201 59/85/203
f 23/39/204 57/83/205 26/52/206
f 26/52/206 57/83/205 59/85/207
f 24/50/47 13/49/48 60/86/208
f 60/86/208 13/49/48 61/87/209
f 13/49/210 26/52/211 61/87/212
f 61/87/212 26/52/211 62/88/213
f 24/50/214 60/86/215 26/52/216
f 26/52/216 60/86/215 62/88/217
